HIERARCHY
ROOT SpineBase
{
  OFFSET 0.000000 0.000000 0.000000
  CHANNELS 6 Xposition Yposition Zposition Zrotation Xrotation Yrotation
  JOINT SpineMid
  {
    OFFSET 0.000000 29.317505 0.000000
    CHANNELS 3 Zrotation Xrotation Yrotation
    JOINT SpineShoulder
    {
      OFFSET -0.039673 21.729843 -0.771084
      CHANNELS 3 Zrotation Xrotation Yrotation
      JOINT Neck
      {
        OFFSET -0.034815 7.187091 -0.576363
        CHANNELS 3 Zrotation Xrotation Yrotation
        JOINT Head
        {
          OFFSET -2.411898 12.252650 0.345511
          CHANNELS 3 Zrotation Xrotation Yrotation
          End Site
          {
            OFFSET 0 0 0
          }
        }
      }
      JOINT ShoulderLeft
      {
        OFFSET -16.685003 -2.720544 5.645309
        CHANNELS 3 Zrotation Xrotation Yrotation
        JOINT ElbowLeft
        {
          OFFSET -2.664787 -25.403737 1.800102
          CHANNELS 3 Zrotation Xrotation Yrotation
          JOINT WristLeft
          {
            OFFSET -3.294066 -21.368200 -4.054010
            CHANNELS 3 Zrotation Xrotation Yrotation
            JOINT HandLeft
            {
              OFFSET 1.217840 -5.817406 -2.177559
              CHANNELS 3 Zrotation Xrotation Yrotation
              JOINT HandTipLeft
              {
                OFFSET 0.064719 -6.873763 -2.005612
                CHANNELS 3 Zrotation Xrotation Yrotation
                End Site
                {
                  OFFSET 0 0 0
                }
              }
              JOINT ThumbLeft
              {
                OFFSET -3.150341 -0.237960 -1.948255
                CHANNELS 3 Zrotation Xrotation Yrotation
                End Site
                {
                  OFFSET 0 0 0
                }
              }
            }
          }
        }
      }
      JOINT ShoulderRight
      {
        OFFSET 15.045067 -2.003834 -5.305813
        CHANNELS 3 Zrotation Xrotation Yrotation
        JOINT ElbowRight
        {
          OFFSET 6.427730 -24.501083 -2.889983
          CHANNELS 3 Zrotation Xrotation Yrotation
          JOINT WristRight
          {
            OFFSET -0.003832 -19.698450 -5.531395
            CHANNELS 3 Zrotation Xrotation Yrotation
            JOINT HandRight
            {
              OFFSET -2.146223 -8.463256 -0.992462
              CHANNELS 3 Zrotation Xrotation Yrotation
              JOINT HandTipRight
              {
                OFFSET -0.685661 -6.777075 -2.147674
                CHANNELS 3 Zrotation Xrotation Yrotation
                End Site
                {
                  OFFSET 0 0 0
                }
              }
              JOINT ThumbRight
              {
                OFFSET 2.234782 -0.613886 -2.348253
                CHANNELS 3 Zrotation Xrotation Yrotation
                End Site
                {
                  OFFSET 0 0 0
                }
              }
            }
          }
        }
      }
    }
  }
  JOINT HipLeft
  {
    OFFSET -7.287949 0.570579 -1.779431
    CHANNELS 3 Zrotation Xrotation Yrotation
    JOINT KneeLeft
    {
      OFFSET -5.636331 -26.692346 3.341681
      CHANNELS 3 Zrotation Xrotation Yrotation
      JOINT AnkleLeft
      {
        OFFSET -2.238791 -37.998190 7.372597
        CHANNELS 3 Zrotation Xrotation Yrotation
        JOINT FootLeft
        {
          OFFSET -2.293984 -5.132771 -9.948532
          CHANNELS 3 Zrotation Xrotation Yrotation
          End Site
          {
            OFFSET 0 0 0
          }
        }
      }
    }
  }
  JOINT HipRight
  {
    OFFSET 6.778522 0.723642 -5.069118
    CHANNELS 3 Zrotation Xrotation Yrotation
    JOINT KneeRight
    {
      OFFSET 4.277103 -29.121659 3.567368
      CHANNELS 3 Zrotation Xrotation Yrotation
      JOINT AnkleRight
      {
        OFFSET 3.024039 -31.979793 9.425063
        CHANNELS 3 Zrotation Xrotation Yrotation
        JOINT FootRight
        {
          OFFSET -3.949755 -7.295810 -5.473143
          CHANNELS 3 Zrotation Xrotation Yrotation
          End Site
          {
            OFFSET 0 0 0
          }
        }
      }
    }
  }
}
MOTION
Frames: 6
Frame Time: 0.033333
28.605046 73.018429 367.348640 -0.000000 0.000000 13.163032 0.000000 0.000000 -13.163032 -0.000000 0.000000 0.000000 -0.000000 0.000000 0.000000 0.000000 0.000000 0.000000 -0.000000 0.000000 0.000000 -0.000000 0.000000 0.000000 -0.000000 0.000000 0.000000 -0.000000 0.000000 0.000000 0.000000 0.000000 0.000000 0.000000 0.000000 0.000000 -0.000000 0.000000 0.000000 -0.000000 0.000000 0.000000 -0.000000 0.000000 0.000000 -0.000000 0.000000 0.000000 0.000000 0.000000 0.000000 0.000000 0.000000 0.000000 0.000000 0.000000 -13.163032 -0.000000 0.000000 0.000000 -0.000000 0.000000 0.000000 0.000000 0.000000 0.000000 0.000000 0.000000 -13.163032 -0.000000 0.000000 0.000000 -0.000000 0.000000 0.000000 0.000000 0.000000 0.000000
28.591836 73.063661 367.318865 0.021498 0.065367 13.200383 -0.035857 -0.058731 -13.200414 -0.000000 0.000000 0.000000 -0.000000 0.000000 0.000000 0.000000 0.000000 0.000000 -0.000000 0.000000 0.000000 -0.000000 0.000000 0.000000 -0.335839 -0.753487 -0.034343 1.544978 -0.777449 -0.338376 0.000000 0.000000 0.000000 0.000000 0.000000 0.000000 -0.000000 0.000000 0.000000 -0.000000 0.000000 0.000000 -0.000000 0.000000 0.000000 -0.000000 0.000000 0.000000 0.000000 0.000000 0.000000 0.000000 0.000000 0.000000 -0.035857 -0.058731 -13.200414 -0.000000 0.000000 0.000000 -0.000000 0.000000 0.000000 0.000000 0.000000 0.000000 0.958581 0.963805 -12.938606 -0.740421 -1.219122 -0.277540 0.686181 2.048458 -1.619549 0.000000 0.000000 0.000000
28.581206 73.102097 367.293974 0.040103 0.121004 13.226865 -0.066726 -0.108618 -13.226970 -0.000000 0.000000 0.000000 -0.717738 -0.967326 -0.176499 0.000000 0.000000 0.000000 -0.000000 0.000000 0.000000 0.707590 0.789256 -0.260699 -1.466183 -2.172857 0.230279 2.898812 -1.363666 -0.660908 0.000000 0.000000 0.000000 0.000000 0.000000 0.000000 -0.000000 0.000000 0.000000 -0.000000 0.000000 0.000000 0.684651 -0.814631 0.131476 -0.682849 0.816142 -0.121746 0.000000 0.000000 0.000000 0.000000 0.000000 0.000000 -0.066726 -0.108618 -13.226970 -0.000000 0.000000 0.000000 -0.325973 1.045893 0.164224 0.000000 0.000000 0.000000 1.824623 1.822275 -12.743832 -1.420067 -2.299761 -0.539933 1.292708 3.937706 -3.085365 0.000000 0.000000 0.000000
28.573155 73.133736 367.273967 0.055804 0.166878 13.242084 -0.092546 -0.149658 -13.242286 -0.000000 0.000000 0.000000 -0.984552 -1.340026 -0.248043 0.000000 0.000000 0.000000 -0.000000 0.000000 0.000000 0.972007 1.046306 -0.354439 -2.249283 -2.922078 0.387074 4.049333 -1.750649 -0.965996 0.000000 0.000000 0.000000 0.000000 0.000000 0.000000 -0.000000 0.000000 0.000000 -0.000000 0.000000 0.000000 0.903273 -1.092240 0.180238 -0.795242 1.941643 -0.283650 0.000000 0.000000 0.000000 0.000000 0.000000 0.000000 -0.092546 -0.149658 -13.242286 -0.000000 0.000000 0.000000 -0.434271 1.393198 0.218786 0.000000 0.000000 0.000000 2.578587 2.552096 -12.578727 -2.022103 -3.216421 -0.776360 1.792204 5.644753 -4.364698 0.000000 0.000000 0.000000
28.567684 73.158579 367.258845 0.068592 0.202959 13.245709 -0.113271 -0.181843 -13.246010 -0.000000 0.000000 0.000000 -1.188106 -1.637091 -0.306498 0.000000 0.000000 0.000000 -0.000000 0.000000 0.000000 1.183098 1.219936 -0.424949 -3.070166 -3.445110 0.578058 4.988852 -1.933844 -1.250552 0.000000 0.000000 0.000000 0.000000 0.000000 0.000000 -0.000000 0.000000 0.000000 -0.000000 0.000000 0.000000 1.040015 -1.284697 0.216283 -0.761239 2.357050 -0.395074 0.000000 0.000000 0.000000 0.000000 0.000000 0.000000 -0.113271 -0.181843 -13.246010 -0.000000 0.000000 0.000000 -0.507749 1.630330 0.255137 0.000000 0.000000 0.000000 3.202837 3.132487 -12.442482 -3.390209 -4.070958 -1.301560 2.982255 7.306253 -5.169273 0.000000 0.000000 0.000000
28.564793 73.176625 367.248606 0.078461 0.229227 13.237471 -0.128867 -0.205170 -13.237858 -0.000000 0.000000 0.000000 -1.327339 -1.857623 -0.350748 0.000000 0.000000 0.000000 -0.000000 0.000000 0.000000 1.343825 1.313392 -0.472670 -3.927779 -3.741463 0.807370 5.712946 -1.910810 -1.509806 0.000000 0.000000 0.000000 0.000000 0.000000 0.000000 -0.000000 0.000000 0.000000 -0.000000 0.000000 0.000000 1.094950 -1.392481 0.238961 -0.578818 2.655964 -0.517347 0.000000 0.000000 0.000000 0.000000 0.000000 0.000000 0.136988 -1.024693 -13.023510 -0.443727 0.738516 -0.208636 -0.547210 1.760621 0.273379 0.000000 0.000000 0.000000 3.682467 3.546217 -12.333827 -3.910007 -4.581146 -1.505963 3.305457 8.598388 -5.964701 0.000000 0.000000 0.000000
